<svg width="40" height="40" viewBox="0 0 40 40" fill="none" xmlns="http://www.w3.org/2000/svg">
<g id="Frame">
<g id="SVGRepo_iconCarrier">
<path id="Vector" d="M22.9125 34.0313H5.525C5.11704 34.0297 4.72587 33.8687 4.43507 33.5826C4.14427 33.2964 3.97691 32.9079 3.96875 32.5V7.57505C3.96875 7.16231 4.13271 6.76647 4.42457 6.47461C4.71642 6.18276 5.11226 6.0188 5.525 6.0188H30.425C30.8377 6.0188 31.2336 6.18276 31.5254 6.47461C31.8173 6.76647 31.9812 7.16231 31.9812 7.57505V21.575" stroke="#F34100" stroke-width="3"/>
<path id="Vector_2" d="M3.96875 12.8938H31.9812" stroke="#F34100" stroke-width="3"/>
<path id="Vector_3" d="M10.2891 6.0188V2.8938" stroke="#F34100" stroke-width="3"/>
<path id="Vector_4" d="M25.2617 6.0188V2.8938" stroke="#F34100" stroke-width="3"/>
<path id="Vector_5" d="M28.2609 36.1688C32.5515 36.1688 36.0297 32.6907 36.0297 28.4001C36.0297 24.1095 32.5515 20.6313 28.2609 20.6313C23.9704 20.6313 20.4922 24.1095 20.4922 28.4001C20.4922 32.6907 23.9704 36.1688 28.2609 36.1688Z" stroke="#F34100" stroke-width="3"/>
<path id="Vector_6" d="M28.2617 22.9375V28.6375L30.9805 30.725" stroke="#F34100" stroke-width="3"/>
</g>
</g>
</svg>
